<?xml version="1.0" encoding="UTF-8" standalone="no"?>
<!DOCTYPE svg PUBLIC "-//W3C//DTD SVG 1.1//EN"
 "http://www.w3.org/Graphics/SVG/1.1/DTD/svg11.dtd">
<!-- Generated by graphviz version 12.2.1 (20241206.2353)
 -->
<!-- Pages: 1 -->
<svg width="737pt" height="653pt"
 viewBox="0.00 0.00 737.21 653.19" xmlns="http://www.w3.org/2000/svg" xmlns:xlink="http://www.w3.org/1999/xlink">
<g id="graph0" class="graph" transform="scale(1 1) rotate(0) translate(4 649.19)">
<polygon fill="white" stroke="none" points="-4,4 -4,-649.19 733.21,-649.19 733.21,4 -4,4"/>
<g id="clust1" class="cluster">
<title>cluster_legend</title>
<polygon fill="none" stroke="gray" stroke-dasharray="5,2" points="27.19,-564.19 27.19,-637.19 612.21,-637.19 612.21,-564.19 27.19,-564.19"/>
<text text-anchor="middle" x="319.7" y="-621.79" font-family="Helvetica,sans-Serif" font-size="12.00">Légende</text>
</g>
<g id="clust2" class="cluster">
<title>cluster_time_labels</title>
</g>
<!-- 0_0 -->
<g id="node1" class="node">
<title>0_0</title>
<ellipse fill="lightblue" stroke="black" cx="44.19" cy="-418.19" rx="44.19" ry="44.19"/>
<text text-anchor="middle" x="44.19" y="-429.64" font-family="Times,serif" font-size="14.00">t=0</text>
<text text-anchor="middle" x="44.19" y="-413.14" font-family="Times,serif" font-size="14.00">S=50.00</text>
<text text-anchor="middle" x="44.19" y="-396.64" font-family="Times,serif" font-size="14.00">V=6.28</text>
</g>
<!-- 1_0 -->
<g id="node2" class="node">
<title>1_0</title>
<ellipse fill="lightblue" stroke="black" cx="196.14" cy="-418.19" rx="45.79" ry="45.79"/>
<text text-anchor="middle" x="196.14" y="-429.64" font-family="Times,serif" font-size="14.00">t=1</text>
<text text-anchor="middle" x="196.14" y="-413.14" font-family="Times,serif" font-size="14.00">S=42.05</text>
<text text-anchor="middle" x="196.14" y="-396.64" font-family="Times,serif" font-size="14.00">V=10.50</text>
</g>
<!-- 0_0&#45;&gt;1_0 -->
<g id="edge2" class="edge">
<title>0_0&#45;&gt;1_0</title>
<path fill="none" stroke="black" d="M88.56,-418.19C104.24,-418.19 122.16,-418.19 138.78,-418.19"/>
<polygon fill="black" stroke="black" points="138.53,-421.69 148.53,-418.19 138.53,-414.69 138.53,-421.69"/>
<text text-anchor="middle" x="118.01" y="-419.94" font-family="Times,serif" font-size="10.00">d</text>
</g>
<!-- 1_1 -->
<g id="node3" class="node">
<title>1_1</title>
<ellipse fill="lightblue" stroke="black" cx="196.14" cy="-292.19" rx="44.19" ry="44.19"/>
<text text-anchor="middle" x="196.14" y="-303.64" font-family="Times,serif" font-size="14.00">t=1</text>
<text text-anchor="middle" x="196.14" y="-287.14" font-family="Times,serif" font-size="14.00">S=59.46</text>
<text text-anchor="middle" x="196.14" y="-270.64" font-family="Times,serif" font-size="14.00">V=2.36</text>
</g>
<!-- 0_0&#45;&gt;1_1 -->
<g id="edge1" class="edge">
<title>0_0&#45;&gt;1_1</title>
<path fill="none" stroke="black" d="M78.47,-390.23C100.43,-371.78 129.38,-347.45 152.95,-327.64"/>
<polygon fill="black" stroke="black" points="155.13,-330.38 160.54,-321.27 150.63,-325.02 155.13,-330.38"/>
<text text-anchor="middle" x="118.01" y="-360.72" font-family="Times,serif" font-size="10.00">u</text>
</g>
<!-- time_label_0 -->
<g id="node15" class="node">
<title>time_label_0</title>
<text text-anchor="middle" x="196.14" y="-513.92" font-family="Times,serif" font-size="12.00">t = 0</text>
</g>
<!-- 0_0&#45;&gt;time_label_0 -->
<!-- 2_0 -->
<g id="node4" class="node">
<title>2_0</title>
<ellipse fill="lightcoral" stroke="black" cx="349.67" cy="-418.19" rx="45.79" ry="45.79"/>
<text text-anchor="middle" x="349.67" y="-429.64" font-family="Times,serif" font-size="14.00">t=2</text>
<text text-anchor="middle" x="349.67" y="-413.14" font-family="Times,serif" font-size="14.00">S=35.36</text>
<text text-anchor="middle" x="349.67" y="-396.64" font-family="Times,serif" font-size="14.00">V=16.64</text>
</g>
<!-- 1_0&#45;&gt;2_0 -->
<g id="edge4" class="edge">
<title>1_0&#45;&gt;2_0</title>
<path fill="none" stroke="black" d="M242.19,-418.19C257.93,-418.19 275.79,-418.19 292.33,-418.19"/>
<polygon fill="black" stroke="black" points="292.02,-421.69 302.02,-418.19 292.02,-414.69 292.02,-421.69"/>
<text text-anchor="middle" x="274.26" y="-419.94" font-family="Times,serif" font-size="10.00">d</text>
</g>
<!-- 2_1 -->
<g id="node5" class="node">
<title>2_1</title>
<ellipse fill="lightblue" stroke="black" cx="349.67" cy="-292.19" rx="44.19" ry="44.19"/>
<text text-anchor="middle" x="349.67" y="-303.64" font-family="Times,serif" font-size="14.00">t=2</text>
<text text-anchor="middle" x="349.67" y="-287.14" font-family="Times,serif" font-size="14.00">S=50.00</text>
<text text-anchor="middle" x="349.67" y="-270.64" font-family="Times,serif" font-size="14.00">V=4.84</text>
</g>
<!-- 1_0&#45;&gt;2_1 -->
<g id="edge3" class="edge">
<title>1_0&#45;&gt;2_1</title>
<path fill="none" stroke="black" d="M231.9,-389.29C254.06,-370.86 282.92,-346.87 306.4,-327.34"/>
<polygon fill="black" stroke="black" points="308.5,-330.15 313.95,-321.07 304.02,-324.77 308.5,-330.15"/>
<text text-anchor="middle" x="274.26" y="-356.94" font-family="Times,serif" font-size="10.00">u</text>
</g>
<!-- time_label_1 -->
<g id="node16" class="node">
<title>time_label_1</title>
<text text-anchor="middle" x="349.67" y="-513.92" font-family="Times,serif" font-size="12.00">t = 1</text>
</g>
<!-- 1_0&#45;&gt;time_label_1 -->
<!-- 1_1&#45;&gt;2_1 -->
<g id="edge6" class="edge">
<title>1_1&#45;&gt;2_1</title>
<path fill="none" stroke="black" d="M240.56,-292.19C257.13,-292.19 276.25,-292.19 293.75,-292.19"/>
<polygon fill="black" stroke="black" points="293.47,-295.69 303.47,-292.19 293.47,-288.69 293.47,-295.69"/>
<text text-anchor="middle" x="274.26" y="-293.94" font-family="Times,serif" font-size="10.00">d</text>
</g>
<!-- 2_2 -->
<g id="node6" class="node">
<title>2_2</title>
<ellipse fill="lightblue" stroke="black" cx="349.67" cy="-168.19" rx="44.19" ry="44.19"/>
<text text-anchor="middle" x="349.67" y="-179.64" font-family="Times,serif" font-size="14.00">t=2</text>
<text text-anchor="middle" x="349.67" y="-163.14" font-family="Times,serif" font-size="14.00">S=70.70</text>
<text text-anchor="middle" x="349.67" y="-146.64" font-family="Times,serif" font-size="14.00">V=0.00</text>
</g>
<!-- 1_1&#45;&gt;2_2 -->
<g id="edge5" class="edge">
<title>1_1&#45;&gt;2_2</title>
<path fill="none" stroke="black" d="M230.77,-264.67C252.96,-246.52 282.22,-222.57 306.04,-203.08"/>
<polygon fill="black" stroke="black" points="308.18,-205.85 313.7,-196.81 303.75,-200.43 308.18,-205.85"/>
<text text-anchor="middle" x="274.26" y="-231.94" font-family="Times,serif" font-size="10.00">u</text>
</g>
<!-- 3_0 -->
<g id="node7" class="node">
<title>3_0</title>
<ellipse fill="lightblue" stroke="black" cx="529.46" cy="-418.19" rx="45.79" ry="45.79"/>
<text text-anchor="middle" x="529.46" y="-429.64" font-family="Times,serif" font-size="14.00">t=3</text>
<text text-anchor="middle" x="529.46" y="-413.14" font-family="Times,serif" font-size="14.00">S=29.74</text>
<text text-anchor="middle" x="529.46" y="-396.64" font-family="Times,serif" font-size="14.00">V=22.26</text>
</g>
<!-- 2_0&#45;&gt;3_0 -->
<g id="edge8" class="edge">
<title>2_0&#45;&gt;3_0</title>
<path fill="none" stroke="black" d="M395.54,-418.19C418.71,-418.19 447.23,-418.19 471.91,-418.19"/>
<polygon fill="black" stroke="black" points="471.79,-421.69 481.79,-418.19 471.79,-414.69 471.79,-421.69"/>
<text text-anchor="middle" x="425.08" y="-419.94" font-family="Times,serif" font-size="10.00">d</text>
</g>
<!-- 3_1 -->
<g id="node8" class="node">
<title>3_1</title>
<ellipse fill="lightblue" stroke="black" cx="529.46" cy="-292.19" rx="44.19" ry="44.19"/>
<text text-anchor="middle" x="529.46" y="-303.64" font-family="Times,serif" font-size="14.00">t=3</text>
<text text-anchor="middle" x="529.46" y="-287.14" font-family="Times,serif" font-size="14.00">S=42.05</text>
<text text-anchor="middle" x="529.46" y="-270.64" font-family="Times,serif" font-size="14.00">V=9.95</text>
</g>
<!-- 2_0&#45;&gt;3_1 -->
<g id="edge7" class="edge">
<title>2_0&#45;&gt;3_1</title>
<path fill="none" stroke="black" d="M387.51,-392.09C415.41,-372.31 453.87,-345.05 483.57,-324.01"/>
<polygon fill="black" stroke="black" points="485.51,-326.92 491.65,-318.28 481.46,-321.21 485.51,-326.92"/>
<text text-anchor="middle" x="425.08" y="-368.23" font-family="Times,serif" font-size="10.00">u</text>
</g>
<!-- 2_1&#45;&gt;3_1 -->
<g id="edge10" class="edge">
<title>2_1&#45;&gt;3_1</title>
<path fill="none" stroke="black" d="M394.16,-292.19C418.06,-292.19 447.93,-292.19 473.43,-292.19"/>
<polygon fill="black" stroke="black" points="473.29,-295.69 483.29,-292.19 473.29,-288.69 473.29,-295.69"/>
<text text-anchor="middle" x="425.08" y="-293.94" font-family="Times,serif" font-size="10.00">d</text>
</g>
<!-- 3_2 -->
<g id="node9" class="node">
<title>3_2</title>
<ellipse fill="lightblue" stroke="black" cx="529.46" cy="-168.19" rx="44.19" ry="44.19"/>
<text text-anchor="middle" x="529.46" y="-179.64" font-family="Times,serif" font-size="14.00">t=3</text>
<text text-anchor="middle" x="529.46" y="-163.14" font-family="Times,serif" font-size="14.00">S=59.46</text>
<text text-anchor="middle" x="529.46" y="-146.64" font-family="Times,serif" font-size="14.00">V=0.00</text>
</g>
<!-- 2_1&#45;&gt;3_2 -->
<g id="edge9" class="edge">
<title>2_1&#45;&gt;3_2</title>
<path fill="none" stroke="black" d="M386.65,-267.1C414.48,-247.69 453.2,-220.69 483.14,-199.8"/>
<polygon fill="black" stroke="black" points="485.09,-202.71 491.29,-194.12 481.09,-196.97 485.09,-202.71"/>
<text text-anchor="middle" x="425.08" y="-243.05" font-family="Times,serif" font-size="10.00">u</text>
</g>
<!-- time_label_2 -->
<g id="node17" class="node">
<title>time_label_2</title>
<text text-anchor="middle" x="529.46" y="-513.92" font-family="Times,serif" font-size="12.00">t = 2</text>
</g>
<!-- 2_1&#45;&gt;time_label_2 -->
<!-- 2_2&#45;&gt;3_2 -->
<g id="edge12" class="edge">
<title>2_2&#45;&gt;3_2</title>
<path fill="none" stroke="black" d="M394.16,-168.19C418.06,-168.19 447.93,-168.19 473.43,-168.19"/>
<polygon fill="black" stroke="black" points="473.29,-171.69 483.29,-168.19 473.29,-164.69 473.29,-171.69"/>
<text text-anchor="middle" x="425.08" y="-169.94" font-family="Times,serif" font-size="10.00">d</text>
</g>
<!-- 3_3 -->
<g id="node10" class="node">
<title>3_3</title>
<ellipse fill="lightblue" stroke="black" cx="529.46" cy="-44.19" rx="44.19" ry="44.19"/>
<text text-anchor="middle" x="529.46" y="-55.64" font-family="Times,serif" font-size="14.00">t=3</text>
<text text-anchor="middle" x="529.46" y="-39.14" font-family="Times,serif" font-size="14.00">S=84.07</text>
<text text-anchor="middle" x="529.46" y="-22.64" font-family="Times,serif" font-size="14.00">V=0.00</text>
</g>
<!-- 2_2&#45;&gt;3_3 -->
<g id="edge11" class="edge">
<title>2_2&#45;&gt;3_3</title>
<path fill="none" stroke="black" d="M386.65,-143.1C414.48,-123.69 453.2,-96.69 483.14,-75.8"/>
<polygon fill="black" stroke="black" points="485.09,-78.71 491.29,-70.12 481.09,-72.97 485.09,-78.71"/>
<text text-anchor="middle" x="425.08" y="-119.05" font-family="Times,serif" font-size="10.00">u</text>
</g>
<!-- time_label_3 -->
<g id="node18" class="node">
<title>time_label_3</title>
<text text-anchor="middle" x="686.21" y="-513.92" font-family="Times,serif" font-size="12.00">t = 3</text>
</g>
<!-- 3_1&#45;&gt;time_label_3 -->
<!-- legend_exercise -->
<g id="node11" class="node">
<title>legend_exercise</title>
<ellipse fill="lightcoral" stroke="black" cx="44.19" cy="-590.19" rx="9" ry="9"/>
</g>
<!-- legend_exercise_label -->
<g id="node13" class="node">
<title>legend_exercise_label</title>
<text text-anchor="middle" x="196.14" y="-585.92" font-family="Times,serif" font-size="12.00">Exercice anticipé</text>
</g>
<!-- legend_exercise&#45;&gt;legend_exercise_label -->
<!-- legend_hold -->
<g id="node12" class="node">
<title>legend_hold</title>
<ellipse fill="lightblue" stroke="black" cx="349.67" cy="-590.19" rx="9" ry="9"/>
</g>
<!-- legend_hold_label -->
<g id="node14" class="node">
<title>legend_hold_label</title>
<text text-anchor="middle" x="529.46" y="-585.92" font-family="Times,serif" font-size="12.00">Conservation (valeur future)</text>
</g>
<!-- legend_hold&#45;&gt;legend_hold_label -->
<!-- legend_exercise_label&#45;&gt;legend_hold -->
<!-- time_label_0&#45;&gt;time_label_1 -->
<!-- time_label_1&#45;&gt;time_label_2 -->
<!-- time_label_2&#45;&gt;time_label_3 -->
</g>
</svg>
