<?xml version="1.0" encoding="UTF-8" standalone="no"?>
<!DOCTYPE svg PUBLIC "-//W3C//DTD SVG 1.1//EN"
 "http://www.w3.org/Graphics/SVG/1.1/DTD/svg11.dtd">
<!-- Generated by graphviz version 12.2.1 (20241206.2353)
 -->
<!-- Pages: 1 -->
<svg width="542pt" height="359pt"
 viewBox="0.00 0.00 542.34 358.65" xmlns="http://www.w3.org/2000/svg" xmlns:xlink="http://www.w3.org/1999/xlink">
<g id="graph0" class="graph" transform="scale(1 1) rotate(0) translate(4 354.65)">
<polygon fill="white" stroke="none" points="-4,4 -4,-354.65 538.34,-354.65 538.34,4 -4,4"/>
<!-- 0_0 -->
<g id="node1" class="node">
<title>0_0</title>
<ellipse fill="lightblue" stroke="black" cx="107.83" cy="-62.33" rx="107.83" ry="52.33"/>
<text text-anchor="middle" x="107.83" y="-82.03" font-family="Times,serif" font-size="14.00">t = 0</text>
<text text-anchor="middle" x="107.83" y="-65.53" font-family="Times,serif" font-size="14.00">S = 100.0</text>
<text text-anchor="middle" x="107.83" y="-49.03" font-family="Times,serif" font-size="14.00">V=11.043871091951111</text>
<text text-anchor="middle" x="107.83" y="-32.53" font-family="Times,serif" font-size="14.00">t,i = 0,0</text>
</g>
<!-- 2_0 -->
<g id="node2" class="node">
<title>2_0</title>
<ellipse fill="lightblue" stroke="black" cx="315.96" cy="-236.33" rx="54.27" ry="52.33"/>
<text text-anchor="middle" x="315.96" y="-256.03" font-family="Times,serif" font-size="14.00">t = 2</text>
<text text-anchor="middle" x="315.96" y="-239.53" font-family="Times,serif" font-size="14.00">S = 79.379</text>
<text text-anchor="middle" x="315.96" y="-223.03" font-family="Times,serif" font-size="14.00">V = 0.000</text>
<text text-anchor="middle" x="315.96" y="-206.53" font-family="Times,serif" font-size="14.00"> t,i = (2, 0)</text>
</g>
<!-- 3_0 -->
<g id="node4" class="node">
<title>3_0</title>
<ellipse fill="lightblue" stroke="black" cx="475.3" cy="-298.33" rx="54.27" ry="52.33"/>
<text text-anchor="middle" x="475.3" y="-318.03" font-family="Times,serif" font-size="14.00">t = 3</text>
<text text-anchor="middle" x="475.3" y="-301.53" font-family="Times,serif" font-size="14.00">S = 70.722</text>
<text text-anchor="middle" x="475.3" y="-285.03" font-family="Times,serif" font-size="14.00">V = 0.000</text>
<text text-anchor="middle" x="475.3" y="-268.53" font-family="Times,serif" font-size="14.00"> t,i = (3, 0)</text>
</g>
<!-- 2_0&#45;&gt;3_0 -->
<g id="edge4" class="edge">
<title>2_0&#45;&gt;3_0</title>
<path fill="none" stroke="black" d="M366.74,-255.94C381.74,-261.85 398.36,-268.4 413.96,-274.55"/>
<polygon fill="black" stroke="black" points="412.57,-277.77 423.16,-278.18 415.14,-271.25 412.57,-277.77"/>
<text text-anchor="middle" x="395.63" y="-269.08" font-family="Times,serif" font-size="10.00">u</text>
</g>
<!-- 3_1 -->
<g id="node7" class="node">
<title>3_1</title>
<ellipse fill="lightblue" stroke="black" cx="475.3" cy="-175.33" rx="54.27" ry="52.33"/>
<text text-anchor="middle" x="475.3" y="-195.03" font-family="Times,serif" font-size="14.00">t = 3</text>
<text text-anchor="middle" x="475.3" y="-178.53" font-family="Times,serif" font-size="14.00">S = 89.095</text>
<text text-anchor="middle" x="475.3" y="-162.03" font-family="Times,serif" font-size="14.00">V = 0.000</text>
<text text-anchor="middle" x="475.3" y="-145.53" font-family="Times,serif" font-size="14.00"> t,i = (3, 1)</text>
</g>
<!-- 2_0&#45;&gt;3_1 -->
<g id="edge3" class="edge">
<title>2_0&#45;&gt;3_1</title>
<path fill="none" stroke="black" d="M366.74,-217.03C381.74,-211.21 398.36,-204.77 413.96,-198.72"/>
<polygon fill="black" stroke="black" points="415.1,-202.03 423.16,-195.15 412.57,-195.5 415.1,-202.03"/>
<text text-anchor="middle" x="395.63" y="-207.58" font-family="Times,serif" font-size="10.00">d</text>
</g>
<!-- 1_0 -->
<g id="node3" class="node">
<title>1_0</title>
<ellipse fill="lightblue" stroke="black" cx="107.83" cy="-185.33" rx="54.27" ry="52.33"/>
<text text-anchor="middle" x="107.83" y="-205.03" font-family="Times,serif" font-size="14.00">t = 1</text>
<text text-anchor="middle" x="107.83" y="-188.53" font-family="Times,serif" font-size="14.00">S = 89.095</text>
<text text-anchor="middle" x="107.83" y="-172.03" font-family="Times,serif" font-size="14.00">V = 3.501</text>
<text text-anchor="middle" x="107.83" y="-155.53" font-family="Times,serif" font-size="14.00"> t,i = (1, 0)</text>
</g>
<!-- 1_0&#45;&gt;2_0 -->
<g id="edge2" class="edge">
<title>1_0&#45;&gt;2_0</title>
<path fill="none" stroke="black" d="M160.85,-198.2C188.56,-205.05 222.85,-213.54 252.05,-220.76"/>
<polygon fill="black" stroke="black" points="250.95,-224.09 261.49,-223.1 252.63,-217.3 250.95,-224.09"/>
<text text-anchor="middle" x="236.29" y="-218.64" font-family="Times,serif" font-size="10.00">u</text>
</g>
<!-- 2_1 -->
<g id="node5" class="node">
<title>2_1</title>
<ellipse fill="lightblue" stroke="black" cx="315.96" cy="-113.33" rx="59.04" ry="52.33"/>
<text text-anchor="middle" x="315.96" y="-133.03" font-family="Times,serif" font-size="14.00">t = 2</text>
<text text-anchor="middle" x="315.96" y="-116.53" font-family="Times,serif" font-size="14.00">S = 100.000</text>
<text text-anchor="middle" x="315.96" y="-100.03" font-family="Times,serif" font-size="14.00">V = 6.546</text>
<text text-anchor="middle" x="315.96" y="-83.53" font-family="Times,serif" font-size="14.00"> t,i = (2, 1)</text>
</g>
<!-- 1_0&#45;&gt;2_1 -->
<g id="edge1" class="edge">
<title>1_0&#45;&gt;2_1</title>
<path fill="none" stroke="black" d="M159.26,-167.71C186.65,-158.15 220.81,-146.21 250.15,-135.96"/>
<polygon fill="black" stroke="black" points="251.01,-139.37 259.3,-132.77 248.7,-132.76 251.01,-139.37"/>
<text text-anchor="middle" x="236.29" y="-142.51" font-family="Times,serif" font-size="10.00">d</text>
</g>
<!-- 3_2 -->
<g id="node6" class="node">
<title>3_2</title>
<ellipse fill="lightblue" stroke="black" cx="475.3" cy="-52.33" rx="59.04" ry="52.33"/>
<text text-anchor="middle" x="475.3" y="-72.03" font-family="Times,serif" font-size="14.00">t = 3</text>
<text text-anchor="middle" x="475.3" y="-55.53" font-family="Times,serif" font-size="14.00">S = 112.240</text>
<text text-anchor="middle" x="475.3" y="-39.03" font-family="Times,serif" font-size="14.00">V = 12.240</text>
<text text-anchor="middle" x="475.3" y="-22.53" font-family="Times,serif" font-size="14.00"> t,i = (3, 2)</text>
</g>
<!-- 2_1&#45;&gt;3_2 -->
<g id="edge5" class="edge">
<title>2_1&#45;&gt;3_2</title>
<path fill="none" stroke="black" d="M370.67,-92.5C383.45,-87.55 397.22,-82.21 410.41,-77.1"/>
<polygon fill="black" stroke="black" points="411.36,-80.48 419.42,-73.6 408.83,-73.95 411.36,-80.48"/>
<text text-anchor="middle" x="395.63" y="-84.58" font-family="Times,serif" font-size="10.00">d</text>
</g>
<!-- 2_1&#45;&gt;3_1 -->
<g id="edge6" class="edge">
<title>2_1&#45;&gt;3_1</title>
<path fill="none" stroke="black" d="M370.23,-134.32C384.36,-139.89 399.72,-145.94 414.19,-151.64"/>
<polygon fill="black" stroke="black" points="412.54,-154.75 423.13,-155.16 415.11,-148.24 412.54,-154.75"/>
<text text-anchor="middle" x="395.63" y="-146.08" font-family="Times,serif" font-size="10.00">u</text>
</g>
</g>
</svg>
